<?xml version="1.0" encoding="UTF-8"?>
<svg id="Layer_1" data-name="Layer 1" xmlns="http://www.w3.org/2000/svg" viewBox="0 0 1080 1080">
  <defs>
    <style>
      .cls-1 {
        fill-rule: evenodd;
      }
    </style>
  </defs>
  <path class="cls-1" d="M618.18,46.86H167.33c-29.89,0-58.56,11.88-79.7,33.01-21.14,21.14-33.01,49.81-33.01,79.7v751.41c0,29.89,11.88,58.56,33.01,79.7,21.14,21.14,49.81,33.01,79.7,33.01h751.41c29.89,0,58.56-11.88,79.7-33.01,21.14-21.14,33.01-49.81,33.01-79.7v-450.84c0-20.74-16.83-37.57-37.57-37.57s-37.57,16.83-37.57,37.57v450.84c0,9.97-3.96,19.52-11,26.57-7.05,7.05-16.6,11-26.57,11H167.33c-9.97,0-19.52-3.96-26.57-11-7.05-7.05-11-16.6-11-26.57V159.57c0-9.97,3.96-19.52,11-26.57,7.05-7.05,16.6-11,26.57-11h450.84c20.74,0,37.57-16.83,37.57-37.57s-16.83-37.57-37.57-37.57Z"/>
  <path class="cls-1" d="M589.11,222.43l-344.9,344.9c-21,20.99-32.86,49.42-33.01,79.12l-.95,182.74c-.05,10.03,3.91,19.67,11,26.76s16.74,11.05,26.76,11l182.74-.95c29.7-.16,58.13-12.01,79.12-33.01l344.9-344.9s-265.66-265.66-265.66-265.66ZM642.23,169.3l265.66,265.66,90.54-90.54c44.01-44.01,44.01-115.38,0-159.39l-106.27-106.27c-44.01-44.01-115.38-44.01-159.39,0,0,0-90.54,90.54-90.54,90.54Z"/>
</svg>