<?xml version="1.0" encoding="UTF-8"?>
<svg id="Layer_1" data-name="Layer 1" xmlns="http://www.w3.org/2000/svg" viewBox="0 0 1080 1080">
  <path d="M129.27,826.68c-20.49,0-36.66-16.18-36.66-36.66v-420.56h797.98v215.67l59.31,16.18V191.54c0-52.84-43.13-95.97-95.97-95.97H129.27c-52.84,0-95.97,43.13-95.97,95.97v597.41c0,52.84,43.13,95.97,95.97,95.97h534.86l-16.18-59.31H129.27v1.08ZM666.29,203.4h156.36c16.18,0,29.12,12.94,29.12,29.12s-12.94,29.12-29.12,29.12h-156.36c-16.18,0-29.12-12.94-29.12-29.12-1.08-16.18,12.94-29.12,29.12-29.12ZM339.55,203.4h5.39c16.18,0,29.12,12.94,29.12,29.12s-12.94,29.12-29.12,29.12h-5.39c-16.18,0-29.12-12.94-29.12-29.12-1.08-16.18,11.86-29.12,29.12-29.12ZM250.05,203.4h5.39c16.18,0,29.12,12.94,29.12,29.12s-12.94,29.12-29.12,29.12h-5.39c-16.18,0-29.12-12.94-29.12-29.12-1.08-16.18,12.94-29.12,29.12-29.12ZM160.54,203.4h5.39c16.18,0,29.12,12.94,29.12,29.12s-12.94,29.12-29.12,29.12h-5.39c-16.18,0-29.12-12.94-29.12-29.12-1.08-16.18,12.94-29.12,29.12-29.12Z"/>
  <path d="M1048.03,893.54l-120.78-120.78,60.39-45.29c22.65-16.18,15.1-51.76-11.86-59.31l-277.14-74.41c-24.8-6.47-47.45,16.18-40.98,40.98l74.41,277.14c7.55,26.96,42.06,33.43,59.31,11.86l45.29-60.39,120.78,120.78c12.94,12.94,34.51,12.94,47.45,0l44.21-44.21c11.86-11.86,11.86-33.43-1.08-46.37Z"/>
  <path d="M216.62,509.65h163.91c16.18,0,29.12-12.94,29.12-29.12s-12.94-29.12-29.12-29.12h-163.91c-16.18,0-29.12,12.94-29.12,29.12s12.94,29.12,29.12,29.12Z"/>
  <path d="M557.38,598.07c0-16.18-12.94-29.12-29.12-29.12H216.62c-16.18,0-29.12,12.94-29.12,29.12s12.94,29.12,29.12,29.12h311.64c15.1,0,29.12-12.94,29.12-29.12Z"/>
  <path d="M216.62,686.5c-16.18,0-29.12,12.94-29.12,29.12s12.94,29.12,29.12,29.12h227.53c16.18,0,29.12-12.94,29.12-29.12s-12.94-29.12-29.12-29.12c0,0-227.53,0-227.53,0Z"/>
</svg>